<svg xmlns="http://www.w3.org/2000/svg" width="160" height="71" fill="none"><path fill="#000" fill-rule="evenodd" d="M48.03 25.93c3.65 4.3 11.62.4 9.03-5.34-1.72-3.86-4.31-2.96-6.16-1.97-3.7 1.92-4.4 5.47-2.87 7.3ZM42.1 22.9c2.38 5.28-4.93 8.86-8.29 4.9-1.4-1.68-.75-4.94 2.64-6.71 1.7-.9 4.07-1.73 5.65 1.81Zm112.12 31.17h-.04v.07c-2.42 18.83-26.19 21.94-26.78 7.15-.27-6.68 11.6-8.62 23.4-9.85.2-5.87-3.57-4.55-8.15-2.95-4.82 1.67-10.53 3.66-13.46-2.04C124.17 36.67 143.82 27 145.92 29c6.35 6.03 3.48 7.14-1.2 8.96l-.18.08c-9.5 3.7-5.8 4.45-4.51 4.04 7.57-2.45 14.36-1.13 14.31 9.02l1.81-.15c.66-.04 1.3-.09 1.95-.15 2.3-.23 2.46 2.64-.16 2.88-1.22.17-2.5.29-3.72.4Zm-3.8.42c-9.12 1.11-17.01 2.64-16.15 5.8 1.72 6.05 13.58 7.4 16.15-5.8ZM117.8 36.17c-.82 6.13-.8 12.63-.11 12.67.33.03 2.3-.37 2.94-1.63.6-1.21 1.17-2.88 1.77-4.63 1.2-3.52 2.5-7.37 4.5-8.48 2.83-1.57-8.1-5.47-9.1 2.07Zm-88.9 30.84c-7.93 5.79-14.23 4.5-12.22-11.77 1.45-11.82-.95-12.49-3.12-10.24-2.85 2.93-4.63 10.55-4.69 17.8.26 1.74.6 3.47 1 5.18.34 1.77-4.9 3.6-7.96 1.1C.83 68.23 0 59.63 0 47.99c0-9.57 1.17-16.15 2.23-16.45 8.03-2.38 9.31 1.46 7.58 8.65a55.63 55.63 0 0 0-1.4 8.6c1.68-5.06 4.08-9.2 6.81-11.04 7.42-5.06 13.6-2.68 12.44 7.38-2.01 17.98-2.18 20.41-.4 19.01 2.24-1.7 3.68 1.34 1.62 2.87Zm12.88 2.68c5.4.67 11.04-1.16 13.21-4.93 1.84-3.17.34-4.27-1.78-1.71-4.46 5.55-9.1 3.05-11.04-2.56l.5-.18c9.42-4.09 15.33-15.18 11.6-21.46-5.13-8.65-21.2-.91-23.2 11.22-1.84 11.21 2.96 18.7 10.7 19.62Zm-.4-12.98c5.86-4.5 7.81-14.44 6.2-17.25-1.73-2.92-5.08 1.65-6.25 12.74-.11 1.59-.11 3.1.06 4.51Zm35.76-2.3c2.06-.73 4.36-2.77 5.96-5.48.45-.77.82-1.45 1.34-3.24-.06.22-.04.12.02-.12.1-.45.33-1.37.37-1.76a2 2 0 0 1 .11-.5c1.23-7.43-3-11.63-8.87-8.46-3.28 1.76-7.35 8.47-9.8 15.72.6-3.9 1.66-7.62 2.84-11.28 2-6.46-1.73-9.75-8.14-7.86-1.06.3-3.02 8.78-3.02 18.35 0 11.64.56 18.34 1.62 19.2 3.07 2.56 8.53.67 7.97-1.04-.21-.65-.37-1.3-.54-1.95l-.01-.06c0-.18 0-.37-.06-.55-1.06-7.56 3.01-18.04 6.36-20.84.89-.8 2.12-.25 2.28 1.83-2.73 1.46-3.62 4.02-3.62 5.12 0 2.98 2.79 3.71 5.19 2.92Z" clip-rule="evenodd"/><path fill="#000" fill-rule="evenodd" d="M113.2 28.5c-.47 2.7-.85 5.43-1.1 8.17-1.07 10.91-.62 20.6.6 24.93.73 2.31 3.46 5.36 6.08 2.2 2.85-3.48 5.97-1.47 2.18 2.61-2.34 2.5-6.7 4.2-11.04 3.72-3.13-.43-5.02-2.62-6.14-5.97a9.52 9.52 0 0 1-1.56 2.5c-2.11 2.37-4.68 3.71-7.97 3.35-6.64-.8-10.54-8.6-8.7-19.69 1.95-11.7 11.32-15.96 16.73-12.85l.33-4.46.06-.45.05-.46c-1.64.4-3.3.74-4.96 1.04C73.8 37.46 82.04 16.25 87.9 10.7c6.64-6.22 7.36-2.01 5.3-.61-3.68 2.56-5.3 17.25 5.24 17.25 1.73 0 3.35-.12 4.96-.3C106.7 7.16 116.67-2.46 124.75.7c8.98 3.54 8.03 19.02-11.54 27.8Zm-10.92 26.46c-.22-3.84-.22-8.17-.17-12.62l.03-.84.03-.75c-3.35-1.64-6.64 3.97-7.48 11.7-.94 9.09 2.8 13.9 4.91 11.7 1.62-1.76 2.46-7.37 2.68-9.2Zm24.08-46.81c-1.78-2.87-8.3.6-12.1 15.54 9.54-4.94 13.33-13.47 12.1-15.54Z" clip-rule="evenodd"/></svg>